<?xml version="1.0" encoding="UTF-8" standalone="no"?>
<!-- Created with Inkscape (http://www.inkscape.org/) -->

<svg
   xmlns:dc="http://purl.org/dc/elements/1.1/"
   xmlns:cc="http://creativecommons.org/ns#"
   xmlns:rdf="http://www.w3.org/1999/02/22-rdf-syntax-ns#"
   xmlns:svg="http://www.w3.org/2000/svg"
   xmlns="http://www.w3.org/2000/svg"
   xmlns:sodipodi="http://sodipodi.sourceforge.net/DTD/sodipodi-0.dtd"
   xmlns:inkscape="http://www.inkscape.org/namespaces/inkscape"
   width="210mm"
   height="297mm"
   viewBox="0 0 744.09448819 1052.3622047"
   id="svg2"
   version="1.1"
   inkscape:version="0.91 r13725"
   sodipodi:docname="calculation_flow.svg">
  <defs
     id="defs4" />
  <sodipodi:namedview
     id="base"
     pagecolor="#ffffff"
     bordercolor="#666666"
     borderopacity="1.0"
     inkscape:pageopacity="0.0"
     inkscape:pageshadow="2"
     inkscape:zoom="0.35"
     inkscape:cx="-100.12357"
     inkscape:cy="520"
     inkscape:document-units="px"
     inkscape:current-layer="layer1"
     showgrid="false"
     inkscape:window-width="1200"
     inkscape:window-height="1875"
     inkscape:window-x="751"
     inkscape:window-y="287"
     inkscape:window-maximized="0" />
  <metadata
     id="metadata7">
    <rdf:RDF>
      <cc:Work
         rdf:about="">
        <dc:format>image/svg+xml</dc:format>
        <dc:type
           rdf:resource="http://purl.org/dc/dcmitype/StillImage" />
        <dc:title></dc:title>
      </cc:Work>
    </rdf:RDF>
  </metadata>
  <g
     inkscape:label="Layer 1"
     inkscape:groupmode="layer"
     id="layer1">
    <g
       style="clip-rule:evenodd;fill-rule:evenodd;stroke-linejoin:round;stroke-miterlimit:10"
       id="g3821"
       transform="translate(-969.64085,-193.29117)"
       inkscape:export-xdpi="68.790001"
       inkscape:export-ydpi="68.790001">
      <rect
         id="rect3609"
         style="fill:#1f497d"
         height="147.752"
         width="220.90401"
         y="262.59799"
         x="193.23801" />
      <path
         id="path3611"
         style="fill:#606060;fill-rule:nonzero;stroke:#1f497d;stroke-width:4.86999989px"
         d="m 414.142,336.475 103.843,0"
         inkscape:connector-curvature="0" />
      <path
         id="path3613"
         style="fill:#1f497d"
         d="m 522.818,336.475 -18.2181,-10.6272 c -1.16189,-0.67775 -2.65303,-0.28517 -3.33078,0.87647 -0.6775,1.16189 -0.28518,2.65303 0.87647,3.33078 l 11.0059,6.41995 -11.0059,6.42002 c -1.16164,0.6777 -1.55397,2.16886 -0.87647,3.33063 0.67775,1.16179 2.16889,1.55422 3.33078,0.87649 l 18.2181,-10.6271 z"
         inkscape:connector-curvature="0" />
      <rect
         id="rect3615"
         style="fill:#1f497d"
         height="147.752"
         width="270.25201"
         y="262.59799"
         x="522.86902" />
      <path
         id="path3617"
         style="fill:#606060;fill-rule:nonzero;stroke:#1f497d;stroke-width:4.86999989px"
         d="m 793.122,336.474 105.212,0"
         inkscape:connector-curvature="0" />
      <path
         id="path3619"
         style="fill:#1f497d"
         d="m 903.167,336.474 -18.2178,-10.6272 c -1.16189,-0.6775 -2.65303,-0.28518 -3.33078,0.87647 -0.67775,1.16189 -0.28517,2.65303 0.87647,3.33078 l 11.0057,6.41999 -11.0057,6.42002 c -1.16164,0.67772 -1.55422,2.16889 -0.87647,3.33065 0.67775,1.16179 2.16889,1.55419 3.33078,0.87649 L 903.167,336.474 Z"
         inkscape:connector-curvature="0" />
      <rect
         id="rect3621"
         style="fill:#1f497d"
         height="147.752"
         width="220.90401"
         y="262.59799"
         x="1235.91" />
      <path
         id="path3623"
         style="fill:#606060;fill-rule:nonzero;stroke:#1f497d;stroke-width:4.86999989px"
         d="m 1456.81,336.474 108.104,0"
         inkscape:connector-curvature="0" />
      <path
         id="path3625"
         style="fill:#1f497d"
         d="m 1569.75,336.474 -18.2181,10.6272 c -1.1619,0.6777 -2.653,0.2853 -3.3305,-0.87649 -0.6778,-1.16177 -0.2854,-2.65296 0.8764,-3.33065 l 11.0057,-6.42002 -11.0057,-6.42002 c -1.1619,-0.67775 -1.5542,-2.16889 -0.8764,-3.33053 0.6775,-1.16189 2.1686,-1.55422 3.3305,-0.87672 l 18.2181,10.6273 z"
         inkscape:connector-curvature="0" />
      <rect
         id="rect3627"
         style="fill:#1f497d"
         height="147.752"
         width="220.90401"
         y="262.59799"
         x="1569.79" />
      <rect
         id="rect3629"
         style="fill:#1f497d"
         height="147.752"
         width="220.90401"
         y="262.59799"
         x="903.15399" />
      <path
         id="path3631"
         style="fill:#606060;fill-rule:nonzero;stroke:#1f497d;stroke-width:4.86999989px"
         d="m 1124.06,336.474 107.039,0"
         inkscape:connector-curvature="0" />
      <path
         id="path3633"
         style="fill:#1f497d"
         d="m 1235.93,336.474 -18.2181,10.6272 c -1.1619,0.6777 -2.653,0.2853 -3.3308,-0.87649 -0.6775,-1.16177 -0.2852,-2.65296 0.8765,-3.33065 l 11.0059,-6.42002 -11.0059,-6.42002 c -1.1617,-0.67775 -1.554,-2.16889 -0.8765,-3.33053 0.6778,-1.16189 2.1689,-1.55422 3.3308,-0.87672 l 18.2181,10.6273 z"
         inkscape:connector-curvature="0" />
      <g
         id="g3635"
         transform="matrix(2.43531,0,0,2.43531,191.667,0)">
        <text
           id="text3637"
           style="font-weight:700;font-size:14px;font-family:'Open Sans';fill:#ffffff"
           y="133.685"
           x="31.4814">Calc</text>
        <text
           id="text3639"
           style="font-weight:700;font-size:14px;font-family:'Open Sans';fill:#ffffff"
           y="153.045"
           x="26.0291">Setup</text>
      </g>
      <g
         id="g3641"
         transform="matrix(2.43531,0,0,2.43531,191.667,0)">
        <text
           id="text3643"
           style="font-weight:700;font-size:14px;font-family:'Open Sans';fill:#ffffff"
           y="133.685"
           x="147.2">Marke<tspan
   id="tspan3645"
   y="133.685"
   x="192.16701">t</tspan>
 Data</text>
        <text
           id="text3647"
           style="font-weight:700;font-size:14px;font-family:'Open Sans';fill:#ffffff"
           y="153.045"
           x="162.855">Building</text>
      </g>
      <g
         id="g3649"
         transform="matrix(2.43531,0,0,2.43531,186.796,0)">
        <text
           id="text3651"
           style="font-weight:700;font-size:14px;font-family:'Open Sans';fill:#ffffff"
           y="133.685"
           x="462.091">Calc</text>
        <text
           id="text3653"
           style="font-weight:700;font-size:14px;font-family:'Open Sans';fill:#ffffff"
           y="153.045"
           x="451.11899">Runner</text>
      </g>
      <g
         id="g3655"
         transform="matrix(2.43531,0,0,2.43531,191.667,0)">
        <text
           id="text3657"
           style="font-weight:700;font-size:14px;font-family:'Open Sans';fill:#ffffff"
           y="133.685"
           x="587.09003">Report</text>
        <text
           id="text3659"
           style="font-weight:700;font-size:14px;font-family:'Open Sans';fill:#ffffff"
           y="153.045"
           x="585.09302">Runner</text>
      </g>
      <g
         id="g3661"
         transform="matrix(2.43531,0,0,2.43531,173.671,0)">
        <text
           id="text3663"
           style="font-size:12px;font-family:'Open Sans';fill:#d76b00"
           y="20.231701"
           x="38.004101">Rules</text>
        <text
           id="text3665"
           style="font-size:12px;font-family:'Open Sans';fill:#d76b00"
           y="34.1717"
           x="49.711102">+</text>
        <text
           id="text3667"
           style="font-size:12px;font-family:'Open Sans';fill:#d76b00"
           y="48.111698"
           x="34.131001">Tr<tspan
   id="tspan3669"
   y="48.111698 48.111698"
   x="45.668098 52.3419">ad</tspan>
es</text>
        <text
           id="text3671"
           style="font-size:12px;font-family:'Open Sans';fill:#d76b00"
           y="63.111698"
           x="49.7201">+</text>
        <text
           id="text3673"
           style="font-size:12px;font-family:'Open Sans';fill:#d76b00"
           y="78.111702"
           x="25.808001">Measure<tspan
   id="tspan3675"
   y="78.111702"
   x="74.768898">s</tspan>
</text>
      </g>
      <text
         id="text3677"
         style="font-style:italic;font-size:26.78840065px;font-family:'Open Sans';fill:#737373"
         y="313.42099"
         x="438.98199">Reqs</text>
      <g
         id="g3679"
         transform="matrix(2.43531,0,0,2.43531,191.667,0)">
        <text
           id="text3681"
           style="font-style:italic;font-size:11px;font-family:'Open Sans';fill:#737373"
           y="115.498"
           x="251.172">Marke<tspan
   id="tspan3683"
   y="115.498"
   x="281.73901">t</tspan>
</text>
        <text
           id="text3685"
           style="font-style:italic;font-size:11px;font-family:'Open Sans';fill:#737373"
           y="128.138"
           x="259.94299">Env</text>
      </g>
      <g
         id="g3687"
         transform="matrix(2.43531,0,0,2.43531,180.344,0)">
        <text
           id="text3689"
           style="font-style:italic;font-size:11px;font-family:'Open Sans';fill:#737373"
           y="115.498"
           x="536.04303">Calc</text>
        <text
           id="text3691"
           style="font-style:italic;font-size:11px;font-family:'Open Sans';fill:#737373"
           y="128.138"
           x="529.33502">Results</text>
      </g>
      <g
         id="g3693"
         transform="matrix(2.43531,0,0,2.43531,167.255,0)">
        <text
           id="text3695"
           style="font-style:italic;font-size:11.97659969px;font-family:'Open Sans';fill:#558ed5"
           y="195.537"
           x="28.399599">Genera<tspan
   id="tspan3697"
   y="195.537"
   x="66.738602">t</tspan>
es</text>
        <text
           id="text3699"
           style="font-style:italic;font-size:11.97659969px;font-family:'Open Sans';fill:#558ed5"
           y="211.35699"
           x="26.095501">calculation</text>
        <text
           id="text3701"
           style="font-style:italic;font-size:11.97659969px;font-family:'Open Sans';fill:#558ed5"
           y="227.177"
           x="19.808901">re<tspan
   id="tspan3703"
   y="227.177"
   x="30.458">q</tspan>
uire<tspan
   id="tspan3705"
   y="227.177"
   x="57.9725">m</tspan>
ents</text>
      </g>
      <g
         id="g3707"
         transform="matrix(2.43531,0,0,2.43531,191.667,0)">
        <text
           id="text3709"
           style="font-style:italic;font-size:12px;font-family:'Open Sans';fill:#558ed5"
           y="193.755"
           x="145.2">Sourc<tspan
   id="tspan3711"
   y="193.755"
   x="175.036">e</tspan>
s or builds</text>
        <text
           id="text3713"
           style="font-style:italic;font-size:12px;font-family:'Open Sans';fill:#558ed5"
           y="210.69501"
           x="147.677">re<tspan
   id="tspan3715"
   y="210.69501"
   x="158.347">q</tspan>
uire<tspan
   id="tspan3717"
   y="210.69501"
   x="185.91499">d</tspan>
 marke<tspan
   id="tspan3719"
   y="210.69501"
   x="229.726">t</tspan>
</text>
        <text
           id="text3721"
           style="font-style:italic;font-size:12px;font-family:'Open Sans';fill:#558ed5"
           y="227.63499"
           x="178.459">data</text>
      </g>
      <g
         id="g3723"
         transform="matrix(2.43531,0,0,2.43531,191.667,0)">
        <text
           id="text3725"
           style="font-style:italic;font-size:12px;font-family:'Open Sans';fill:#558ed5"
           y="193.755"
           x="439.189">Pro<tspan
   id="tspan3727"
   y="193.755"
   x="457.46399">d</tspan>
uces the</text>
        <text
           id="text3729"
           style="font-style:italic;font-size:12px;font-family:'Open Sans';fill:#558ed5"
           y="210.69501"
           x="447.46899">re<tspan
   id="tspan3731"
   y="210.69501"
   x="458.13901">q</tspan>
uested</text>
        <text
           id="text3733"
           style="font-style:italic;font-size:12px;font-family:'Open Sans';fill:#558ed5"
           y="227.63499"
           x="448.108">measure<tspan
   id="tspan3735"
   y="227.63499"
   x="494.005">s</tspan>
</text>
      </g>
      <g
         id="g3737"
         transform="matrix(2.43531,0,0,2.43531,191.667,0)">
        <text
           id="text3739"
           style="font-style:italic;font-size:12px;font-family:'Open Sans';fill:#558ed5"
           y="193.755"
           x="569.42401">Tr<tspan
   id="tspan3741"
   y="193.755 193.755"
   x="580.15198 586.93103">an</tspan>
sforms the</text>
        <text
           id="text3743"
           style="font-style:italic;font-size:12px;font-family:'Open Sans';fill:#558ed5"
           y="210.69501"
           x="575.52301">re<tspan
   id="tspan3745"
   y="210.69501"
   x="586.19299">s</tspan>
ults into a</text>
        <text
           id="text3747"
           style="font-style:italic;font-size:12px;font-family:'Open Sans';fill:#558ed5"
           y="227.63499"
           x="593.24799">re<tspan
   id="tspan3749"
   y="227.63499"
   x="603.91803">p</tspan>
ort</text>
      </g>
      <g
         id="g3751"
         transform="matrix(2.43531,0,0,2.43531,191.667,0)">
        <text
           id="text3753"
           style="font-weight:700;font-size:14px;font-family:'Open Sans';fill:#ffffff"
           y="133.685"
           x="307.164">Scenario</text>
        <text
           id="text3755"
           style="font-weight:700;font-size:14px;font-family:'Open Sans';fill:#ffffff"
           y="153.045"
           x="308.535">Building</text>
      </g>
      <g
         id="g3757"
         transform="matrix(2.43531,0,0,2.43531,191.667,0)">
        <text
           id="text3759"
           style="font-style:italic;font-size:11px;font-family:'Open Sans';fill:#737373"
           y="116.165"
           x="387.73001">Marke<tspan
   id="tspan3761"
   y="116.165"
   x="418.297">t</tspan>
</text>
        <text
           id="text3763"
           style="font-style:italic;font-size:11px;font-family:'Open Sans';fill:#737373"
           y="128.80499"
           x="396.50101">Env</text>
      </g>
      <g
         id="g3765"
         transform="matrix(2.43531,0,0,2.43531,191.667,0)">
        <text
           id="text3767"
           style="font-style:italic;font-size:12px;font-family:'Open Sans';fill:#558ed5"
           y="202.395"
           x="314.54099">Perturbs</text>
        <text
           id="text3769"
           style="font-style:italic;font-size:12px;font-family:'Open Sans';fill:#558ed5"
           y="219.27499"
           x="304.513">marke<tspan
   id="tspan3771"
   y="219.27499"
   x="338.28">t</tspan>
 data</text>
      </g>
      <g
         id="g3773"
         transform="matrix(2.43531,0,0,2.43531,191.667,0)">
        <text
           id="text3775"
           style="font-size:12px;font-family:'Open Sans';fill:#d76b00"
           y="60.551701"
           x="171.686">Marke<tspan
   id="tspan3777"
   y="60.551701"
   x="207.12399">t</tspan>
</text>
        <text
           id="text3779"
           style="font-size:12px;font-family:'Open Sans';fill:#d76b00"
           y="77.431702"
           x="181.59399">Env</text>
      </g>
      <g
         id="g3781"
         transform="matrix(2.43531,0,0,2.43531,177.069,0)">
        <text
           id="text3783"
           style="font-size:12px;font-family:'Open Sans';fill:#d76b00"
           y="60.551701"
           x="319.01099">Scenario</text>
        <text
           id="text3785"
           style="font-size:12px;font-family:'Open Sans';fill:#d76b00"
           y="77.431702"
           x="316.04901">Deﬁnition</text>
      </g>
      <g
         id="g3787"
         transform="matrix(2.43531,0,0,2.43531,164.532,0)">
        <text
           id="text3789"
           style="font-size:12px;font-family:'Open Sans';fill:#d76b00"
           y="60.552799"
           x="602.87701">Report</text>
        <text
           id="text3791"
           style="font-size:12px;font-family:'Open Sans';fill:#d76b00"
           y="77.4328"
           x="595.86902">Te<tspan
   id="tspan3793"
   y="77.4328"
   x="609.23999">m</tspan>
plate</text>
      </g>
      <path
         id="path3795"
         style="fill:none;stroke:#d76b00;stroke-width:3.6500001px"
         d="m 303.639,204.156 0,53.6143"
         inkscape:connector-curvature="0" />
      <path
         id="path3797"
         style="fill:#d76b00"
         d="m 303.639,262.604 -10.6271,-18.2178 c -0.67772,-1.16189 -0.2853,-2.65303 0.87647,-3.33078 1.16177,-0.6775 2.65296,-0.28518 3.33065,0.87647 l 6.42002,11.0059 6.42004,-11.0059 c 0.6777,-1.16164 2.16889,-1.55397 3.33065,-0.87647 1.16177,0.67775 1.55417,2.16889 0.87647,3.33078 L 303.639,262.604 Z"
         inkscape:connector-curvature="0" />
      <path
         id="path3799"
         style="fill:none;stroke:#d76b00;stroke-width:3.6500001px"
         d="m 657.995,204.156 0,53.6143"
         inkscape:connector-curvature="0" />
      <path
         id="path3801"
         style="fill:#d76b00"
         d="m 657.995,262.604 -10.6272,-18.2178 c -0.6775,-1.16189 -0.28518,-2.65303 0.87647,-3.33078 1.16189,-0.6775 2.65303,-0.28518 3.33078,0.87647 l 6.41997,11.0059 6.41997,-11.0059 c 0.67775,-1.16164 2.16889,-1.55397 3.33078,-0.87647 1.16164,0.67775 1.55422,2.16889 0.87647,3.33078 l -10.6272,18.2178 z"
         inkscape:connector-curvature="0" />
      <path
         id="path3803"
         style="fill:none;stroke:#d76b00;stroke-width:3.6500001px"
         d="m 1013.61,204.156 0,53.6143"
         inkscape:connector-curvature="0" />
      <path
         id="path3805"
         style="fill:#d76b00"
         d="m 1013.61,262.604 -10.627,-18.2178 c -0.6777,-1.16189 -0.2854,-2.65303 0.8765,-3.33078 1.1616,-0.67775 2.6528,-0.28518 3.3305,0.87647 l 6.42,11.0059 6.4202,-11.0059 c 0.6775,-1.16164 2.1689,-1.55422 3.3305,-0.87647 1.1619,0.67775 1.5542,2.16889 0.8765,3.33078 L 1013.61,262.604 Z"
         inkscape:connector-curvature="0" />
      <path
         id="path3807"
         style="fill:none;stroke:#d76b00;stroke-width:3.6500001px"
         d="m 1680.12,204.159 0.1396,53.6143"
         inkscape:connector-curvature="0" />
      <path
         id="path3809"
         style="fill:#d76b00"
         d="m 1680.27,262.607 -10.6747,-18.1903 c -0.6807,-1.15994 -0.2922,-2.65205 0.8679,-3.33272 1.16,-0.68091 2.6521,-0.29224 3.3328,0.8677 l 6.4487,10.9891 6.3912,-11.0225 c 0.6748,-1.16359 2.165,-1.55982 3.3283,-0.88523 1.1636,0.67482 1.5599,2.16475 0.8853,3.32834 l -10.5795,18.2456 z"
         inkscape:connector-curvature="0" />
      <text
         id="text3811"
         style="font-weight:700;font-size:29.16670036px;font-family:'Open Sans';fill:#d76b00"
         y="168.00301"
         x="11.0461">Inputs</text>
      <text
         id="text3813"
         style="font-weight:700;font-size:29.16670036px;font-family:'Open Sans';fill:#1f497d"
         y="343.28201"
         x="10.1061">Stages</text>
    </g>
  </g>
</svg>
