<svg id="Logo" xmlns="http://www.w3.org/2000/svg" viewBox="0 0 488.67 52.59" width="200" height="22"><defs><style>.cls-1{fill:#fff;}</style></defs><title>OG_Open_Logo_White</title><path class="cls-1" d="M22.74,38.23V14.29a7.23,7.23,0,0,0-7.41-7.18h-.75a7.28,7.28,0,0,0-7.41,7.18V38.23a7.3,7.3,0,0,0,7.41,7.26h.75a7.3,7.3,0,0,0,7.41-7.26M78,15c0-4-2.77-7.41-6.88-7.41H62.54V22.44h8.53C75.19,22.44,78,19.08,78,15M279.12,33h12.12l-6.06-19.83Zm185,0h12.12l-6.06-19.83Zm24.54,16.16A3.44,3.44,0,0,1,485,52.59,3.58,3.58,0,0,1,481.56,50L478.5,40.1H461.89l-3,9.88a3.6,3.6,0,0,1-3.52,2.62,3.43,3.43,0,0,1-3.67-3.37,6.53,6.53,0,0,1,.15-1.2L466.08,2.84A4.24,4.24,0,0,1,470.19,0a4.08,4.08,0,0,1,4.11,2.84L488.52,48a6.62,6.62,0,0,1,.15,1.12M429.2,49A3.59,3.59,0,0,1,422,49V17.28L413.94,36a4.07,4.07,0,0,1-3.82,2.24A3.93,3.93,0,0,1,406.45,36l-8.38-18.7V49a3.59,3.59,0,0,1-7.18,0V3.59A3.75,3.75,0,0,1,394.48,0h.9A3.65,3.65,0,0,1,399,2.09l11.07,24.69L421,2.09C421.72.52,422.76,0,424.71,0h.9a3.75,3.75,0,0,1,3.59,3.59Zm-64.64,0a3.59,3.59,0,0,1-7.18,0V17.28L349.3,36a4.07,4.07,0,0,1-3.82,2.24A3.93,3.93,0,0,1,341.82,36l-8.38-18.7V49a3.59,3.59,0,0,1-7.18,0V3.59A3.75,3.75,0,0,1,329.85,0h.9a3.65,3.65,0,0,1,3.67,2.09l11.07,24.69L356.4,2.09C357.08.52,358.13,0,360.07,0h.9a3.75,3.75,0,0,1,3.59,3.59Zm-60.9.15A3.44,3.44,0,0,1,300,52.59,3.58,3.58,0,0,1,296.55,50l-3.07-9.88H276.88l-3,9.88a3.6,3.6,0,0,1-3.52,2.62,3.43,3.43,0,0,1-3.67-3.37,6.59,6.59,0,0,1,.15-1.2L281.07,2.84A4.24,4.24,0,0,1,285.18,0a4.08,4.08,0,0,1,4.11,2.84L303.51,48a6.62,6.62,0,0,1,.15,1.12M245.08,38A14.56,14.56,0,0,1,230.5,52.59h-.75a14.37,14.37,0,0,1-14.59-14.36V14.29A14.35,14.35,0,0,1,229.75,0h.75c7.78,0,13.84,5.24,14.51,11.75v.37a3.29,3.29,0,0,1-3.52,3.37A3.47,3.47,0,0,1,238,12.27c-.37-3.37-3.82-5.16-7.48-5.16h-.75a7.28,7.28,0,0,0-7.41,7.18V38.23a7.3,7.3,0,0,0,7.41,7.26h.75A7.54,7.54,0,0,0,237.9,38V30.3h-6.06a3.45,3.45,0,0,1-3.59-3.59,3.39,3.39,0,0,1,3.59-3.52h9.58a3.71,3.71,0,0,1,3.67,3.59ZM189.8,49a3.69,3.69,0,0,1-3.59,3.59h-.82c-1,0-2.84-.3-4-3.07L167.06,17.28V49a3.39,3.39,0,0,1-3.52,3.59A3.51,3.51,0,0,1,159.87,49V3.74A3.67,3.67,0,0,1,163.69,0h.82c.9,0,2.69,0,3.82,2.62l14.29,32.24V3.59A3.39,3.39,0,0,1,186.13,0a3.51,3.51,0,0,1,3.67,3.59ZM114.54,29.1V45h19.15a3.55,3.55,0,1,1,0,7.11H110.95a3.75,3.75,0,0,1-3.59-3.59V4A3.75,3.75,0,0,1,110.95.45h22.74A3.45,3.45,0,0,1,137.28,4a3.43,3.43,0,0,1-3.59,3.52H114.54V22h13a3.39,3.39,0,0,1,3.59,3.52,3.45,3.45,0,0,1-3.59,3.59ZM85.14,15c0,8.08-6,14.59-14.06,14.59H62.54V49a3.59,3.59,0,0,1-7.18,0V4A3.69,3.69,0,0,1,59,.45H71.07C79.15.45,85.14,6.88,85.14,15M29.93,38.23A14.37,14.37,0,0,1,15.34,52.59h-.75A14.42,14.42,0,0,1,0,38.23V14.29A14.37,14.37,0,0,1,14.66,0h.67A14.31,14.31,0,0,1,29.93,14.29Z"/></svg>
